<mxfile host="65bd71144e">
    <diagram id="Yp99EcE86TbjtTeTYBdj" name="Sample Lab Scenario 0">
        <mxGraphModel dx="1692" dy="520" grid="1" gridSize="10" guides="1" tooltips="1" connect="1" arrows="1" fold="1" page="1" pageScale="1" pageWidth="827" pageHeight="583" background="#F1FAEE" math="0" shadow="0">
            <root>
                <mxCell id="0"/>
                <mxCell id="1" parent="0"/>
                <mxCell id="223" value="" style="verticalLabelPosition=bottom;html=1;verticalAlign=top;align=center;shape=mxgraph.floorplan.wallCorner;fillColor=#000000;" vertex="1" parent="1">
                    <mxGeometry x="43" y="70" width="100" height="100" as="geometry"/>
                </mxCell>
                <mxCell id="224" value="" style="verticalLabelPosition=bottom;html=1;verticalAlign=top;align=center;shape=mxgraph.floorplan.wallCorner;fillColor=#000000;direction=south;" vertex="1" parent="1">
                    <mxGeometry x="143" y="70" width="100" height="100" as="geometry"/>
                </mxCell>
                <mxCell id="225" value="" style="verticalLabelPosition=bottom;html=1;verticalAlign=top;align=center;shape=mxgraph.floorplan.wall;fillColor=#000000;direction=south;" vertex="1" parent="1">
                    <mxGeometry x="43" y="170" width="10" height="520" as="geometry"/>
                </mxCell>
                <mxCell id="226" value="" style="verticalLabelPosition=bottom;html=1;verticalAlign=top;align=center;shape=mxgraph.floorplan.wall;fillColor=#000000;" vertex="1" parent="1">
                    <mxGeometry x="43" y="160" width="80" height="10" as="geometry"/>
                </mxCell>
                <mxCell id="227" value="" style="verticalLabelPosition=bottom;html=1;verticalAlign=top;align=center;shape=mxgraph.floorplan.wall;fillColor=#000000;" vertex="1" parent="1">
                    <mxGeometry x="163" y="160" width="70" height="10" as="geometry"/>
                </mxCell>
                <mxCell id="228" value="" style="verticalLabelPosition=bottom;html=1;verticalAlign=top;align=center;shape=mxgraph.floorplan.wall;fillColor=#000000;direction=south;" vertex="1" parent="1">
                    <mxGeometry x="113" y="170" width="10" height="520" as="geometry"/>
                </mxCell>
                <mxCell id="229" value="" style="verticalLabelPosition=bottom;html=1;verticalAlign=top;align=center;shape=mxgraph.floorplan.wall;fillColor=#000000;direction=south;" vertex="1" parent="1">
                    <mxGeometry x="163" y="170" width="10" height="360" as="geometry"/>
                </mxCell>
                <mxCell id="230" value="" style="verticalLabelPosition=bottom;html=1;verticalAlign=top;align=center;shape=mxgraph.floorplan.wall;fillColor=#000000;" vertex="1" parent="1">
                    <mxGeometry x="53" y="680" width="730" height="10" as="geometry"/>
                </mxCell>
                <mxCell id="231" value="" style="verticalLabelPosition=bottom;html=1;verticalAlign=top;align=center;shape=mxgraph.floorplan.wall;fillColor=#000000;direction=south;" vertex="1" parent="1">
                    <mxGeometry x="233" y="160" width="10" height="370" as="geometry"/>
                </mxCell>
                <mxCell id="232" value="" style="verticalLabelPosition=bottom;html=1;verticalAlign=top;align=center;shape=mxgraph.floorplan.wall;fillColor=#000000;" vertex="1" parent="1">
                    <mxGeometry x="220" y="414" width="560" height="10" as="geometry"/>
                </mxCell>
                <mxCell id="233" value="" style="verticalLabelPosition=bottom;html=1;verticalAlign=top;align=center;shape=mxgraph.floorplan.wall;fillColor=#000000;" vertex="1" parent="1">
                    <mxGeometry x="164" y="528" width="620" height="10" as="geometry"/>
                </mxCell>
                <mxCell id="234" value="" style="verticalLabelPosition=bottom;html=1;verticalAlign=top;align=center;shape=mxgraph.floorplan.wall;fillColor=#000000;direction=south;" vertex="1" parent="1">
                    <mxGeometry x="223" y="580" width="30" height="110" as="geometry"/>
                </mxCell>
                <mxCell id="235" value="" style="verticalLabelPosition=bottom;html=1;verticalAlign=top;align=center;shape=mxgraph.floorplan.wall;fillColor=#000000;" vertex="1" parent="1">
                    <mxGeometry x="233" y="577" width="330" height="10" as="geometry"/>
                </mxCell>
                <mxCell id="236" value="" style="verticalLabelPosition=bottom;html=1;verticalAlign=top;align=center;shape=mxgraph.floorplan.wall;fillColor=#000000;" vertex="1" parent="1">
                    <mxGeometry x="53" y="536" width="60" height="10" as="geometry"/>
                </mxCell>
                <mxCell id="237" value="" style="verticalLabelPosition=bottom;html=1;verticalAlign=top;align=center;shape=mxgraph.floorplan.wall;fillColor=#000000;" vertex="1" parent="1">
                    <mxGeometry x="53" y="410" width="60" height="10" as="geometry"/>
                </mxCell>
                <mxCell id="238" value="" style="verticalLabelPosition=bottom;html=1;verticalAlign=top;align=center;shape=mxgraph.floorplan.wall;fillColor=#000000;" vertex="1" parent="1">
                    <mxGeometry x="55" y="284" width="60" height="10" as="geometry"/>
                </mxCell>
                <mxCell id="239" value="" style="verticalLabelPosition=bottom;html=1;verticalAlign=top;align=center;shape=mxgraph.floorplan.wall;fillColor=#000000;" vertex="1" parent="1">
                    <mxGeometry x="173" y="345" width="70" height="10" as="geometry"/>
                </mxCell>
                <mxCell id="240" value="" style="verticalLabelPosition=bottom;html=1;verticalAlign=top;align=center;shape=mxgraph.floorplan.wall;fillColor=#000000;direction=south;" vertex="1" parent="1">
                    <mxGeometry x="363" y="580" width="10" height="110" as="geometry"/>
                </mxCell>
                <mxCell id="241" value="" style="verticalLabelPosition=bottom;html=1;verticalAlign=top;align=center;shape=mxgraph.floorplan.wall;fillColor=#000000;direction=south;" vertex="1" parent="1">
                    <mxGeometry x="468" y="579" width="10" height="110" as="geometry"/>
                </mxCell>
                <mxCell id="242" value="" style="verticalLabelPosition=bottom;html=1;verticalAlign=top;align=center;shape=mxgraph.floorplan.wall;fillColor=#000000;direction=south;" vertex="1" parent="1">
                    <mxGeometry x="555" y="577" width="10" height="110" as="geometry"/>
                </mxCell>
                <mxCell id="244" value="" style="verticalLabelPosition=bottom;html=1;verticalAlign=top;align=center;shape=mxgraph.floorplan.wall;fillColor=#000000;direction=south;" vertex="1" parent="1">
                    <mxGeometry x="503" y="460" width="150" height="78" as="geometry"/>
                </mxCell>
                <mxCell id="245" value="" style="verticalLabelPosition=bottom;html=1;verticalAlign=top;align=center;shape=mxgraph.floorplan.wall;fillColor=#000000;direction=south;" vertex="1" parent="1">
                    <mxGeometry x="337" y="460" width="150" height="78" as="geometry"/>
                </mxCell>
                <mxCell id="246" value="" style="verticalLabelPosition=bottom;html=1;verticalAlign=top;align=center;shape=mxgraph.floorplan.wall;fillColor=#000000;direction=south;" vertex="1" parent="1">
                    <mxGeometry x="251" y="459" width="150" height="78" as="geometry"/>
                </mxCell>
                <mxCell id="247" value="" style="verticalLabelPosition=bottom;html=1;verticalAlign=top;align=center;shape=mxgraph.floorplan.wall;fillColor=#000000;direction=south;" vertex="1" parent="1">
                    <mxGeometry x="419" y="460" width="150" height="78" as="geometry"/>
                </mxCell>
                <mxCell id="249" value="" style="verticalLabelPosition=bottom;html=1;verticalAlign=top;align=center;shape=mxgraph.floorplan.wall;fillColor=#000000;direction=south;" vertex="1" parent="1">
                    <mxGeometry x="592" y="461" width="150" height="78" as="geometry"/>
                </mxCell>
                <mxCell id="250" value="" style="verticalLabelPosition=bottom;html=1;verticalAlign=top;align=center;shape=mxgraph.floorplan.wall;fillColor=#000000;direction=south;" vertex="1" parent="1">
                    <mxGeometry x="655" y="420" width="150" height="78" as="geometry"/>
                </mxCell>
                <object label="" collision_tag="stopEvent" type="robot" component_Script="[[&quot;Go exit&quot;], 0]" id="251">
                    <mxCell style="ellipse;whiteSpace=wrap;html=1;aspect=fixed;fontSize=12;fontColor=#000000;strokeColor=#B09500;fillColor=#e3c800;" vertex="1" parent="1">
                        <mxGeometry x="133" y="170" width="20" height="20" as="geometry"/>
                    </mxCell>
                </object>
                <object label="" type="POI" tag="exit" id="252">
                    <mxCell style="whiteSpace=wrap;html=1;aspect=fixed;fontSize=12;fontColor=#ffffff;strokeColor=#B20000;fillColor=#e51400;" vertex="1" parent="1">
                        <mxGeometry x="751.39" y="555" width="9.22" height="9.22" as="geometry"/>
                    </mxCell>
                </object>
                <object label="" type="map-path" id="253">
                    <mxCell style="endArrow=classic;html=1;fontSize=12;fontColor=#000000;strokeColor=#000000;" edge="1" parent="1">
                        <mxGeometry width="50" height="50" relative="1" as="geometry">
                            <mxPoint x="143" y="200" as="sourcePoint"/>
                            <mxPoint x="743" y="560" as="targetPoint"/>
                            <Array as="points">
                                <mxPoint x="143" y="560"/>
                            </Array>
                        </mxGeometry>
                    </mxCell>
                </object>
            </root>
        </mxGraphModel>
    </diagram>
</mxfile>